<?xml version="1.0" standalone="no"?>
<!DOCTYPE svg PUBLIC "-//W3C//DTD SVG 20010904//EN"
 "http://www.w3.org/TR/2001/REC-SVG-20010904/DTD/svg10.dtd">
<svg version="1.0" xmlns="http://www.w3.org/2000/svg"
 width="1080.000000pt" height="1080.000000pt" viewBox="0 0 1080.000000 1080.000000"
 preserveAspectRatio="xMidYMid meet">
<metadata>
Created by potrace 1.16, written by Peter Selinger 2001-2019
</metadata>
<g transform="translate(0.000000,1080.000000) scale(0.100000,-0.100000)"
fill="#000000" stroke="none">
<path d="M0 5400 l0 -5400 5400 0 5400 0 0 5400 0 5400 -5400 0 -5400 0 0
-5400z m5535 2003 c55 -17 139 -69 172 -107 70 -80 98 -160 98 -276 0 -75 -4
-93 -31 -150 -18 -36 -120 -186 -228 -335 -108 -148 -208 -294 -222 -323 -64
-132 -53 -274 30 -400 37 -56 173 -246 363 -510 61 -84 85 -154 85 -247 0
-123 -24 -178 -165 -372 -29 -39 -93 -129 -144 -200 -51 -70 -167 -231 -258
-358 -92 -126 -177 -246 -191 -265 -13 -19 -41 -58 -61 -87 -21 -28 -71 -97
-111 -153 -106 -147 -159 -191 -272 -224 -71 -21 -134 -20 -212 4 -195 60
-314 247 -280 440 15 81 33 114 150 276 136 189 195 271 240 334 21 30 90 127
154 216 138 191 165 241 177 330 18 126 -7 201 -117 354 -418 582 -397 546
-397 690 1 94 3 110 27 156 24 46 145 219 363 519 212 293 323 447 359 500
126 185 280 247 471 188z m610 -890 c57 -20 116 -56 151 -95 25 -26 290 -389
354 -484 25 -38 133 -188 143 -199 4 -5 87 -120 184 -255 218 -304 278 -388
326 -453 20 -29 45 -63 55 -77 14 -21 268 -376 416 -582 23 -31 90 -125 150
-210 60 -84 113 -155 116 -158 17 -12 49 -91 61 -148 34 -165 -63 -358 -215
-428 -121 -55 -231 -54 -352 6 -67 33 -111 76 -192 191 -29 40 -92 128 -139
194 -48 66 -130 181 -183 255 -53 74 -179 250 -280 390 -221 307 -465 648
-649 905 -132 185 -222 310 -239 330 -4 6 -23 33 -42 60 -19 28 -38 55 -42 60
-100 128 -121 166 -139 253 -25 120 19 261 111 352 104 105 265 142 405 93z
m-1855 -914 c81 -38 154 -109 192 -186 27 -55 33 -80 36 -152 6 -127 -14 -177
-145 -359 -60 -82 -148 -206 -198 -276 -80 -113 -124 -173 -185 -256 -134
-182 -330 -466 -343 -497 -74 -185 31 -413 217 -473 l61 -19 -460 2 c-450 2
-461 2 -514 24 -81 33 -143 79 -187 140 -96 131 -99 319 -8 454 28 40 169 238
214 299 10 14 56 77 101 140 149 207 273 380 311 433 21 29 54 75 73 102 20
28 57 80 83 116 26 36 105 146 176 246 182 253 244 295 426 290 78 -2 105 -7
150 -28z m1935 -1128 c109 -39 147 -77 341 -349 126 -176 142 -210 151 -322
13 -163 -93 -327 -254 -391 -58 -24 -61 -24 -518 -26 -449 -2 -459 -2 -410 15
110 38 184 111 225 219 18 48 21 74 18 144 -5 98 -17 128 -109 257 l-60 83 87
122 c104 146 116 160 172 199 99 69 245 88 357 49z"/>
</g>
</svg>
